<mxfile host="app.diagrams.net" agent="Mozilla/5.0 (Windows NT 10.0; Win64; x64) AppleWebKit/537.36 (KHTML, like Gecko) Chrome/133.0.0.0 Safari/537.36 Edg/133.0.0.0" version="26.0.16">
  <diagram name="Page-1" id="6xutXLYYv3jzVJp2HqhG">
    <mxGraphModel dx="1666" dy="1197" grid="0" gridSize="10" guides="1" tooltips="1" connect="1" arrows="1" fold="1" page="0" pageScale="1" pageWidth="850" pageHeight="1100" math="0" shadow="0">
      <root>
        <mxCell id="0" />
        <mxCell id="1" parent="0" />
        <mxCell id="nEkv_JiNhnkex9U1NCVA-14" value="" style="rounded=0;whiteSpace=wrap;html=1;" vertex="1" parent="1">
          <mxGeometry x="177" y="7" width="844" height="670" as="geometry" />
        </mxCell>
        <mxCell id="nEkv_JiNhnkex9U1NCVA-16" value="" style="rounded=0;whiteSpace=wrap;html=1;rotation=90;" vertex="1" parent="1">
          <mxGeometry x="666.25" y="34.25" width="321.5" height="112" as="geometry" />
        </mxCell>
        <mxCell id="nEkv_JiNhnkex9U1NCVA-21" value="" style="rounded=0;whiteSpace=wrap;html=1;rotation=90;" vertex="1" parent="1">
          <mxGeometry x="61.25" y="-54.75" width="454.5" height="222" as="geometry" />
        </mxCell>
        <mxCell id="nEkv_JiNhnkex9U1NCVA-24" value="" style="verticalLabelPosition=bottom;html=1;verticalAlign=top;align=center;shape=mxgraph.floorplan.doorDouble;aspect=fixed;rotation=-180;" vertex="1" parent="1">
          <mxGeometry x="401" y="-24" width="54" height="28.69" as="geometry" />
        </mxCell>
        <mxCell id="nEkv_JiNhnkex9U1NCVA-25" value="" style="verticalLabelPosition=bottom;html=1;verticalAlign=top;align=center;shape=mxgraph.floorplan.doorDouble;aspect=fixed;rotation=-180;" vertex="1" parent="1">
          <mxGeometry x="401" y="34.81" width="54" height="28.69" as="geometry" />
        </mxCell>
        <mxCell id="nEkv_JiNhnkex9U1NCVA-28" value="" style="endArrow=none;html=1;rounded=0;fontSize=12;startSize=8;endSize=8;curved=1;entryX=-0.074;entryY=0.017;entryDx=0;entryDy=0;entryPerimeter=0;exitX=0.412;exitY=1;exitDx=0;exitDy=0;exitPerimeter=0;" edge="1" parent="1" source="nEkv_JiNhnkex9U1NCVA-16" target="nEkv_JiNhnkex9U1NCVA-25">
          <mxGeometry width="50" height="50" relative="1" as="geometry">
            <mxPoint x="719" y="85" as="sourcePoint" />
            <mxPoint x="769" y="35" as="targetPoint" />
          </mxGeometry>
        </mxCell>
        <mxCell id="nEkv_JiNhnkex9U1NCVA-29" value="" style="endArrow=none;html=1;rounded=0;fontSize=12;startSize=8;endSize=8;curved=1;entryX=0.334;entryY=0.006;entryDx=0;entryDy=0;entryPerimeter=0;" edge="1" parent="1" target="nEkv_JiNhnkex9U1NCVA-14">
          <mxGeometry width="50" height="50" relative="1" as="geometry">
            <mxPoint x="459" y="62" as="sourcePoint" />
            <mxPoint x="769" y="35" as="targetPoint" />
          </mxGeometry>
        </mxCell>
      </root>
    </mxGraphModel>
  </diagram>
</mxfile>
